<mxfile host="drawio-plugin" modified="2021-10-12T12:48:29.776Z" agent="5.0 (Windows NT 6.2; Win64; x64) AppleWebKit/537.36 (KHTML, like Gecko) Chrome/89.0.4389.114 Safari/537.36" etag="aFYQ7yS_xVo-yTObDF35" compressed="true" version="14.7.4" type="embed" pages="2"><diagram id="Nq6pSUNswCohd0AL3jUL" name="Base de Datos"><mxGraphModel dx="1981" dy="834" grid="1" gridSize="10" guides="1" tooltips="1" connect="1" arrows="1" fold="1" page="1" pageScale="1" pageWidth="850" pageHeight="1100" math="0" shadow="0"><root><mxCell id="0"/><mxCell id="1" parent="0"/><mxCell id="_PQUibNGBd2o8KV1kYcL-1" value="DataBase Schema" style="shape=umlFrame;whiteSpace=wrap;html=1;width=120;height=30;boundedLbl=1;verticalAlign=middle;align=left;spacingLeft=5;fillColor=#f5f5f5;strokeColor=#666666;fontColor=#333333;" parent="1" vertex="1"><mxGeometry x="10" y="10" width="1190" height="950" as="geometry"/></mxCell><mxCell id="_PQUibNGBd2o8KV1kYcL-2" value="Clientes" style="swimlane;fontStyle=0;childLayout=stackLayout;horizontal=1;startSize=26;fillColor=#d5e8d4;horizontalStack=0;resizeParent=1;resizeParentMax=0;resizeLast=0;collapsible=1;marginBottom=0;strokeColor=#82b366;" parent="1" vertex="1"><mxGeometry x="30" y="80" width="220" height="520" as="geometry"><mxRectangle x="30" y="80" width="80" height="26" as="alternateBounds"/></mxGeometry></mxCell><mxCell id="_PQUibNGBd2o8KV1kYcL-3" value="PK IdUsuario: autoincrement int" style="text;align=left;verticalAlign=top;spacingLeft=4;spacingRight=4;overflow=hidden;rotatable=0;points=[[0,0.5],[1,0.5]];portConstraint=eastwest;fillColor=#f8cecc;strokeColor=#b85450;" parent="_PQUibNGBd2o8KV1kYcL-2" vertex="1"><mxGeometry y="26" width="220" height="26" as="geometry"/></mxCell><mxCell id="_PQUibNGBd2o8KV1kYcL-4" value="Nombre: varchar(30)" style="text;align=left;verticalAlign=top;spacingLeft=4;spacingRight=4;overflow=hidden;rotatable=0;points=[[0,0.5],[1,0.5]];portConstraint=eastwest;fillColor=#f5f5f5;strokeColor=#666666;fontColor=#333333;" parent="_PQUibNGBd2o8KV1kYcL-2" vertex="1"><mxGeometry y="52" width="220" height="26" as="geometry"/></mxCell><mxCell id="_PQUibNGBd2o8KV1kYcL-6" value="ApellidoPaterno: varchar(30)" style="text;strokeColor=#666666;fillColor=#f5f5f5;align=left;verticalAlign=top;spacingLeft=4;spacingRight=4;overflow=hidden;rotatable=0;points=[[0,0.5],[1,0.5]];portConstraint=eastwest;fontColor=#333333;" parent="_PQUibNGBd2o8KV1kYcL-2" vertex="1"><mxGeometry y="78" width="220" height="26" as="geometry"/></mxCell><mxCell id="_PQUibNGBd2o8KV1kYcL-5" value="ApellidoMaterno: varchar(30)" style="text;strokeColor=#666666;fillColor=#f5f5f5;align=left;verticalAlign=top;spacingLeft=4;spacingRight=4;overflow=hidden;rotatable=0;points=[[0,0.5],[1,0.5]];portConstraint=eastwest;fontColor=#333333;" parent="_PQUibNGBd2o8KV1kYcL-2" vertex="1"><mxGeometry y="104" width="220" height="26" as="geometry"/></mxCell><mxCell id="_PQUibNGBd2o8KV1kYcL-8" value="Username: varchar(15)" style="text;strokeColor=#666666;fillColor=#f5f5f5;align=left;verticalAlign=top;spacingLeft=4;spacingRight=4;overflow=hidden;rotatable=0;points=[[0,0.5],[1,0.5]];portConstraint=eastwest;fontColor=#333333;" parent="_PQUibNGBd2o8KV1kYcL-2" vertex="1"><mxGeometry y="130" width="220" height="26" as="geometry"/></mxCell><mxCell id="_PQUibNGBd2o8KV1kYcL-9" value="FechaNacimiento: dateTime" style="text;strokeColor=#666666;fillColor=#f5f5f5;align=left;verticalAlign=top;spacingLeft=4;spacingRight=4;overflow=hidden;rotatable=0;points=[[0,0.5],[1,0.5]];portConstraint=eastwest;fontColor=#333333;" parent="_PQUibNGBd2o8KV1kYcL-2" vertex="1"><mxGeometry y="156" width="220" height="26" as="geometry"/></mxCell><mxCell id="_PQUibNGBd2o8KV1kYcL-7" value="Telefono: varchar(10)" style="text;strokeColor=#666666;fillColor=#f5f5f5;align=left;verticalAlign=top;spacingLeft=4;spacingRight=4;overflow=hidden;rotatable=0;points=[[0,0.5],[1,0.5]];portConstraint=eastwest;fontColor=#333333;" parent="_PQUibNGBd2o8KV1kYcL-2" vertex="1"><mxGeometry y="182" width="220" height="26" as="geometry"/></mxCell><mxCell id="_PQUibNGBd2o8KV1kYcL-12" value="CondicionEspecial: bool" style="text;strokeColor=#666666;fillColor=#f5f5f5;align=left;verticalAlign=top;spacingLeft=4;spacingRight=4;overflow=hidden;rotatable=0;points=[[0,0.5],[1,0.5]];portConstraint=eastwest;fontColor=#333333;" parent="_PQUibNGBd2o8KV1kYcL-2" vertex="1"><mxGeometry y="208" width="220" height="26" as="geometry"/></mxCell><mxCell id="_PQUibNGBd2o8KV1kYcL-10" value="NombreContacto: varchar(30)" style="text;strokeColor=#666666;fillColor=#f5f5f5;align=left;verticalAlign=top;spacingLeft=4;spacingRight=4;overflow=hidden;rotatable=0;points=[[0,0.5],[1,0.5]];portConstraint=eastwest;fontColor=#333333;" parent="_PQUibNGBd2o8KV1kYcL-2" vertex="1"><mxGeometry y="234" width="220" height="26" as="geometry"/></mxCell><mxCell id="_PQUibNGBd2o8KV1kYcL-14" value="TelefonoContacto: varchar(10)" style="text;strokeColor=#666666;fillColor=#f5f5f5;align=left;verticalAlign=top;spacingLeft=4;spacingRight=4;overflow=hidden;rotatable=0;points=[[0,0.5],[1,0.5]];portConstraint=eastwest;fontColor=#333333;" parent="_PQUibNGBd2o8KV1kYcL-2" vertex="1"><mxGeometry y="260" width="220" height="26" as="geometry"/></mxCell><mxCell id="_PQUibNGBd2o8KV1kYcL-13" value="Foto: blob" style="text;strokeColor=#666666;fillColor=#f5f5f5;align=left;verticalAlign=top;spacingLeft=4;spacingRight=4;overflow=hidden;rotatable=0;points=[[0,0.5],[1,0.5]];portConstraint=eastwest;fontColor=#333333;" parent="_PQUibNGBd2o8KV1kYcL-2" vertex="1"><mxGeometry y="286" width="220" height="26" as="geometry"/></mxCell><mxCell id="_PQUibNGBd2o8KV1kYcL-16" value="FK Dias: varchar(50)" style="text;strokeColor=#6c8ebf;fillColor=#dae8fc;align=left;verticalAlign=top;spacingLeft=4;spacingRight=4;overflow=hidden;rotatable=0;points=[[0,0.5],[1,0.5]];portConstraint=eastwest;" parent="_PQUibNGBd2o8KV1kYcL-2" vertex="1"><mxGeometry y="312" width="220" height="26" as="geometry"/></mxCell><mxCell id="_PQUibNGBd2o8KV1kYcL-90" value="FK Horario: varchar(500)" style="text;strokeColor=#6c8ebf;fillColor=#dae8fc;align=left;verticalAlign=top;spacingLeft=4;spacingRight=4;overflow=hidden;rotatable=0;points=[[0,0.5],[1,0.5]];portConstraint=eastwest;" parent="_PQUibNGBd2o8KV1kYcL-2" vertex="1"><mxGeometry y="338" width="220" height="26" as="geometry"/></mxCell><mxCell id="_PQUibNGBd2o8KV1kYcL-82" value="FechaUltimoAcceso: datetime" style="text;strokeColor=#666666;fillColor=#f5f5f5;align=left;verticalAlign=top;spacingLeft=4;spacingRight=4;overflow=hidden;rotatable=0;points=[[0,0.5],[1,0.5]];portConstraint=eastwest;fontColor=#333333;" parent="_PQUibNGBd2o8KV1kYcL-2" vertex="1"><mxGeometry y="364" width="220" height="26" as="geometry"/></mxCell><mxCell id="_PQUibNGBd2o8KV1kYcL-83" value="FechaUltimoPago: datetime" style="text;strokeColor=#666666;fillColor=#f5f5f5;align=left;verticalAlign=top;spacingLeft=4;spacingRight=4;overflow=hidden;rotatable=0;points=[[0,0.5],[1,0.5]];portConstraint=eastwest;fontColor=#333333;" parent="_PQUibNGBd2o8KV1kYcL-2" vertex="1"><mxGeometry y="390" width="220" height="26" as="geometry"/></mxCell><mxCell id="_PQUibNGBd2o8KV1kYcL-85" value="MontoUltimoPago: decimal" style="text;strokeColor=#666666;fillColor=#f5f5f5;align=left;verticalAlign=top;spacingLeft=4;spacingRight=4;overflow=hidden;rotatable=0;points=[[0,0.5],[1,0.5]];portConstraint=eastwest;fontColor=#333333;" parent="_PQUibNGBd2o8KV1kYcL-2" vertex="1"><mxGeometry y="416" width="220" height="26" as="geometry"/></mxCell><mxCell id="_PQUibNGBd2o8KV1kYcL-15" value="FK IdTipoCliente: int" style="text;strokeColor=#6c8ebf;fillColor=#dae8fc;align=left;verticalAlign=top;spacingLeft=4;spacingRight=4;overflow=hidden;rotatable=0;points=[[0,0.5],[1,0.5]];portConstraint=eastwest;" parent="_PQUibNGBd2o8KV1kYcL-2" vertex="1"><mxGeometry y="442" width="220" height="26" as="geometry"/></mxCell><mxCell id="_PQUibNGBd2o8KV1kYcL-94" value="FK IdClase: int" style="text;strokeColor=#6c8ebf;fillColor=#dae8fc;align=left;verticalAlign=top;spacingLeft=4;spacingRight=4;overflow=hidden;rotatable=0;points=[[0,0.5],[1,0.5]];portConstraint=eastwest;" parent="_PQUibNGBd2o8KV1kYcL-2" vertex="1"><mxGeometry y="468" width="220" height="26" as="geometry"/></mxCell><mxCell id="_PQUibNGBd2o8KV1kYcL-84" value="DeudaCliente: decimal" style="text;strokeColor=#666666;fillColor=#f5f5f5;align=left;verticalAlign=top;spacingLeft=4;spacingRight=4;overflow=hidden;rotatable=0;points=[[0,0.5],[1,0.5]];portConstraint=eastwest;fontColor=#333333;" parent="_PQUibNGBd2o8KV1kYcL-2" vertex="1"><mxGeometry y="494" width="220" height="26" as="geometry"/></mxCell><mxCell id="_PQUibNGBd2o8KV1kYcL-31" value="Instructores" style="swimlane;fontStyle=0;childLayout=stackLayout;horizontal=1;startSize=26;fillColor=#d5e8d4;horizontalStack=0;resizeParent=1;resizeParentMax=0;resizeLast=0;collapsible=1;marginBottom=0;strokeColor=#82b366;" parent="1" vertex="1"><mxGeometry x="320" y="80" width="220" height="520" as="geometry"><mxRectangle x="320" y="80" width="100" height="26" as="alternateBounds"/></mxGeometry></mxCell><mxCell id="_PQUibNGBd2o8KV1kYcL-32" value="PK IdInstructor: autoincrement int" style="text;strokeColor=#b85450;fillColor=#f8cecc;align=left;verticalAlign=top;spacingLeft=4;spacingRight=4;overflow=hidden;rotatable=0;points=[[0,0.5],[1,0.5]];portConstraint=eastwest;" parent="_PQUibNGBd2o8KV1kYcL-31" vertex="1"><mxGeometry y="26" width="220" height="26" as="geometry"/></mxCell><mxCell id="_PQUibNGBd2o8KV1kYcL-33" value="Nombre: varchar(30)" style="text;strokeColor=#666666;fillColor=#f5f5f5;align=left;verticalAlign=top;spacingLeft=4;spacingRight=4;overflow=hidden;rotatable=0;points=[[0,0.5],[1,0.5]];portConstraint=eastwest;fontColor=#333333;" parent="_PQUibNGBd2o8KV1kYcL-31" vertex="1"><mxGeometry y="52" width="220" height="26" as="geometry"/></mxCell><mxCell id="_PQUibNGBd2o8KV1kYcL-37" value="ApellidoPaterno: varchar(30)" style="text;strokeColor=#666666;fillColor=#f5f5f5;align=left;verticalAlign=top;spacingLeft=4;spacingRight=4;overflow=hidden;rotatable=0;points=[[0,0.5],[1,0.5]];portConstraint=eastwest;fontColor=#333333;" parent="_PQUibNGBd2o8KV1kYcL-31" vertex="1"><mxGeometry y="78" width="220" height="26" as="geometry"/></mxCell><mxCell id="_PQUibNGBd2o8KV1kYcL-38" value="ApellidoMaterno: varchar(30)" style="text;strokeColor=#666666;fillColor=#f5f5f5;align=left;verticalAlign=top;spacingLeft=4;spacingRight=4;overflow=hidden;rotatable=0;points=[[0,0.5],[1,0.5]];portConstraint=eastwest;fontColor=#333333;" parent="_PQUibNGBd2o8KV1kYcL-31" vertex="1"><mxGeometry y="104" width="220" height="26" as="geometry"/></mxCell><mxCell id="_PQUibNGBd2o8KV1kYcL-39" value="Username: varchar(15)" style="text;strokeColor=#666666;fillColor=#f5f5f5;align=left;verticalAlign=top;spacingLeft=4;spacingRight=4;overflow=hidden;rotatable=0;points=[[0,0.5],[1,0.5]];portConstraint=eastwest;fontColor=#333333;" parent="_PQUibNGBd2o8KV1kYcL-31" vertex="1"><mxGeometry y="130" width="220" height="26" as="geometry"/></mxCell><mxCell id="_PQUibNGBd2o8KV1kYcL-40" value="FechaNacimiento: dateTime" style="text;strokeColor=#666666;fillColor=#f5f5f5;align=left;verticalAlign=top;spacingLeft=4;spacingRight=4;overflow=hidden;rotatable=0;points=[[0,0.5],[1,0.5]];portConstraint=eastwest;fontColor=#333333;" parent="_PQUibNGBd2o8KV1kYcL-31" vertex="1"><mxGeometry y="156" width="220" height="26" as="geometry"/></mxCell><mxCell id="_PQUibNGBd2o8KV1kYcL-41" value="Telefono: varchar(10)" style="text;strokeColor=#666666;fillColor=#f5f5f5;align=left;verticalAlign=top;spacingLeft=4;spacingRight=4;overflow=hidden;rotatable=0;points=[[0,0.5],[1,0.5]];portConstraint=eastwest;fontColor=#333333;" parent="_PQUibNGBd2o8KV1kYcL-31" vertex="1"><mxGeometry y="182" width="220" height="26" as="geometry"/></mxCell><mxCell id="_PQUibNGBd2o8KV1kYcL-52" value="CondicionEspecial: bool" style="text;strokeColor=#666666;fillColor=#f5f5f5;align=left;verticalAlign=top;spacingLeft=4;spacingRight=4;overflow=hidden;rotatable=0;points=[[0,0.5],[1,0.5]];portConstraint=eastwest;fontColor=#333333;" parent="_PQUibNGBd2o8KV1kYcL-31" vertex="1"><mxGeometry y="208" width="220" height="26" as="geometry"/></mxCell><mxCell id="_PQUibNGBd2o8KV1kYcL-53" value="NombreContacto: varchar(30)" style="text;strokeColor=#666666;fillColor=#f5f5f5;align=left;verticalAlign=top;spacingLeft=4;spacingRight=4;overflow=hidden;rotatable=0;points=[[0,0.5],[1,0.5]];portConstraint=eastwest;fontColor=#333333;" parent="_PQUibNGBd2o8KV1kYcL-31" vertex="1"><mxGeometry y="234" width="220" height="26" as="geometry"/></mxCell><mxCell id="_PQUibNGBd2o8KV1kYcL-54" value="TelefonoContacto: varchar(10)" style="text;strokeColor=#666666;fillColor=#f5f5f5;align=left;verticalAlign=top;spacingLeft=4;spacingRight=4;overflow=hidden;rotatable=0;points=[[0,0.5],[1,0.5]];portConstraint=eastwest;fontColor=#333333;" parent="_PQUibNGBd2o8KV1kYcL-31" vertex="1"><mxGeometry y="260" width="220" height="26" as="geometry"/></mxCell><mxCell id="_PQUibNGBd2o8KV1kYcL-96" value="Foto: blob" style="text;strokeColor=#666666;fillColor=#f5f5f5;align=left;verticalAlign=top;spacingLeft=4;spacingRight=4;overflow=hidden;rotatable=0;points=[[0,0.5],[1,0.5]];portConstraint=eastwest;fontColor=#333333;" parent="_PQUibNGBd2o8KV1kYcL-31" vertex="1"><mxGeometry y="286" width="220" height="26" as="geometry"/></mxCell><mxCell id="_PQUibNGBd2o8KV1kYcL-51" value="FK Dias: varchar(50)" style="text;strokeColor=#6c8ebf;fillColor=#dae8fc;align=left;verticalAlign=top;spacingLeft=4;spacingRight=4;overflow=hidden;rotatable=0;points=[[0,0.5],[1,0.5]];portConstraint=eastwest;" parent="_PQUibNGBd2o8KV1kYcL-31" vertex="1"><mxGeometry y="312" width="220" height="26" as="geometry"/></mxCell><mxCell id="_PQUibNGBd2o8KV1kYcL-89" value="FK Horario: varchar(500)" style="text;strokeColor=#6c8ebf;fillColor=#dae8fc;align=left;verticalAlign=top;spacingLeft=4;spacingRight=4;overflow=hidden;rotatable=0;points=[[0,0.5],[1,0.5]];portConstraint=eastwest;" parent="_PQUibNGBd2o8KV1kYcL-31" vertex="1"><mxGeometry y="338" width="220" height="26" as="geometry"/></mxCell><mxCell id="_PQUibNGBd2o8KV1kYcL-86" value="FechaUltimoAcceso: datetime" style="text;strokeColor=#666666;fillColor=#f5f5f5;align=left;verticalAlign=top;spacingLeft=4;spacingRight=4;overflow=hidden;rotatable=0;points=[[0,0.5],[1,0.5]];portConstraint=eastwest;fontColor=#333333;" parent="_PQUibNGBd2o8KV1kYcL-31" vertex="1"><mxGeometry y="364" width="220" height="26" as="geometry"/></mxCell><mxCell id="_PQUibNGBd2o8KV1kYcL-87" value="FechaUltimoPago: datetime" style="text;strokeColor=#666666;fillColor=#f5f5f5;align=left;verticalAlign=top;spacingLeft=4;spacingRight=4;overflow=hidden;rotatable=0;points=[[0,0.5],[1,0.5]];portConstraint=eastwest;fontColor=#333333;" parent="_PQUibNGBd2o8KV1kYcL-31" vertex="1"><mxGeometry y="390" width="220" height="26" as="geometry"/></mxCell><mxCell id="_PQUibNGBd2o8KV1kYcL-88" value="MontoUltimoPago: decimal" style="text;strokeColor=#666666;fillColor=#f5f5f5;align=left;verticalAlign=top;spacingLeft=4;spacingRight=4;overflow=hidden;rotatable=0;points=[[0,0.5],[1,0.5]];portConstraint=eastwest;fontColor=#333333;" parent="_PQUibNGBd2o8KV1kYcL-31" vertex="1"><mxGeometry y="416" width="220" height="26" as="geometry"/></mxCell><mxCell id="_PQUibNGBd2o8KV1kYcL-35" value="FK IdTipoInstructor: int" style="text;strokeColor=#6c8ebf;fillColor=#dae8fc;align=left;verticalAlign=top;spacingLeft=4;spacingRight=4;overflow=hidden;rotatable=0;points=[[0,0.5],[1,0.5]];portConstraint=eastwest;" parent="_PQUibNGBd2o8KV1kYcL-31" vertex="1"><mxGeometry y="442" width="220" height="26" as="geometry"/></mxCell><mxCell id="_PQUibNGBd2o8KV1kYcL-36" value="FK IdDiciplina: int" style="text;strokeColor=#6c8ebf;fillColor=#dae8fc;align=left;verticalAlign=top;spacingLeft=4;spacingRight=4;overflow=hidden;rotatable=0;points=[[0,0.5],[1,0.5]];portConstraint=eastwest;" parent="_PQUibNGBd2o8KV1kYcL-31" vertex="1"><mxGeometry y="468" width="220" height="26" as="geometry"/></mxCell><mxCell id="_PQUibNGBd2o8KV1kYcL-50" value="PagoHora: decimal" style="text;strokeColor=#666666;fillColor=#f5f5f5;align=left;verticalAlign=top;spacingLeft=4;spacingRight=4;overflow=hidden;rotatable=0;points=[[0,0.5],[1,0.5]];portConstraint=eastwest;fontColor=#333333;" parent="_PQUibNGBd2o8KV1kYcL-31" vertex="1"><mxGeometry y="494" width="220" height="26" as="geometry"/></mxCell><mxCell id="_PQUibNGBd2o8KV1kYcL-42" value="TipoClientes" style="swimlane;fontStyle=0;childLayout=stackLayout;horizontal=1;startSize=26;fillColor=#d5e8d4;horizontalStack=0;resizeParent=1;resizeParentMax=0;resizeLast=0;collapsible=1;marginBottom=0;strokeColor=#82b366;" parent="1" vertex="1"><mxGeometry x="600" y="80" width="220" height="104" as="geometry"/></mxCell><mxCell id="_PQUibNGBd2o8KV1kYcL-43" value="PK IdTipoCliente: autoincrement int" style="text;strokeColor=#b85450;fillColor=#f8cecc;align=left;verticalAlign=top;spacingLeft=4;spacingRight=4;overflow=hidden;rotatable=0;points=[[0,0.5],[1,0.5]];portConstraint=eastwest;" parent="_PQUibNGBd2o8KV1kYcL-42" vertex="1"><mxGeometry y="26" width="220" height="26" as="geometry"/></mxCell><mxCell id="_PQUibNGBd2o8KV1kYcL-44" value="NombreTipoCliente: varchar(30)" style="text;strokeColor=#666666;fillColor=#f5f5f5;align=left;verticalAlign=top;spacingLeft=4;spacingRight=4;overflow=hidden;rotatable=0;points=[[0,0.5],[1,0.5]];portConstraint=eastwest;fontColor=#333333;" parent="_PQUibNGBd2o8KV1kYcL-42" vertex="1"><mxGeometry y="52" width="220" height="26" as="geometry"/></mxCell><mxCell id="_PQUibNGBd2o8KV1kYcL-45" value="Descripcion: varchar(500)" style="text;strokeColor=#666666;fillColor=#f5f5f5;align=left;verticalAlign=top;spacingLeft=4;spacingRight=4;overflow=hidden;rotatable=0;points=[[0,0.5],[1,0.5]];portConstraint=eastwest;fontColor=#333333;" parent="_PQUibNGBd2o8KV1kYcL-42" vertex="1"><mxGeometry y="78" width="220" height="26" as="geometry"/></mxCell><mxCell id="_PQUibNGBd2o8KV1kYcL-46" value="TipoInstructor" style="swimlane;fontStyle=0;childLayout=stackLayout;horizontal=1;startSize=26;fillColor=#d5e8d4;horizontalStack=0;resizeParent=1;resizeParentMax=0;resizeLast=0;collapsible=1;marginBottom=0;strokeColor=#82b366;" parent="1" vertex="1"><mxGeometry x="600" y="200" width="220" height="104" as="geometry"/></mxCell><mxCell id="_PQUibNGBd2o8KV1kYcL-47" value="PK IdTipoInstructor: autoincrement int" style="text;strokeColor=#b85450;fillColor=#f8cecc;align=left;verticalAlign=top;spacingLeft=4;spacingRight=4;overflow=hidden;rotatable=0;points=[[0,0.5],[1,0.5]];portConstraint=eastwest;" parent="_PQUibNGBd2o8KV1kYcL-46" vertex="1"><mxGeometry y="26" width="220" height="26" as="geometry"/></mxCell><mxCell id="_PQUibNGBd2o8KV1kYcL-48" value="NombreTipoInstructor: varchar(30)" style="text;strokeColor=#666666;fillColor=#f5f5f5;align=left;verticalAlign=top;spacingLeft=4;spacingRight=4;overflow=hidden;rotatable=0;points=[[0,0.5],[1,0.5]];portConstraint=eastwest;fontColor=#333333;" parent="_PQUibNGBd2o8KV1kYcL-46" vertex="1"><mxGeometry y="52" width="220" height="26" as="geometry"/></mxCell><mxCell id="_PQUibNGBd2o8KV1kYcL-49" value="Descripcion: varchar(500)" style="text;strokeColor=#666666;fillColor=#f5f5f5;align=left;verticalAlign=top;spacingLeft=4;spacingRight=4;overflow=hidden;rotatable=0;points=[[0,0.5],[1,0.5]];portConstraint=eastwest;fontColor=#333333;" parent="_PQUibNGBd2o8KV1kYcL-46" vertex="1"><mxGeometry y="78" width="220" height="26" as="geometry"/></mxCell><mxCell id="_PQUibNGBd2o8KV1kYcL-55" value="Diciplinas" style="swimlane;fontStyle=0;childLayout=stackLayout;horizontal=1;startSize=26;fillColor=#d5e8d4;horizontalStack=0;resizeParent=1;resizeParentMax=0;resizeLast=0;collapsible=1;marginBottom=0;strokeColor=#82b366;" parent="1" vertex="1"><mxGeometry x="600" y="330" width="220" height="104" as="geometry"><mxRectangle x="280" y="330" width="80" height="26" as="alternateBounds"/></mxGeometry></mxCell><mxCell id="_PQUibNGBd2o8KV1kYcL-56" value="PK IdDiciplina: autoincrement int" style="text;strokeColor=#b85450;fillColor=#f8cecc;align=left;verticalAlign=top;spacingLeft=4;spacingRight=4;overflow=hidden;rotatable=0;points=[[0,0.5],[1,0.5]];portConstraint=eastwest;" parent="_PQUibNGBd2o8KV1kYcL-55" vertex="1"><mxGeometry y="26" width="220" height="26" as="geometry"/></mxCell><mxCell id="_PQUibNGBd2o8KV1kYcL-57" value="NombreDiciplina: varchar(30)" style="text;strokeColor=#666666;fillColor=#f5f5f5;align=left;verticalAlign=top;spacingLeft=4;spacingRight=4;overflow=hidden;rotatable=0;points=[[0,0.5],[1,0.5]];portConstraint=eastwest;fontColor=#333333;" parent="_PQUibNGBd2o8KV1kYcL-55" vertex="1"><mxGeometry y="52" width="220" height="26" as="geometry"/></mxCell><mxCell id="_PQUibNGBd2o8KV1kYcL-58" value="Descripcion: varchar(500)" style="text;strokeColor=#666666;fillColor=#f5f5f5;align=left;verticalAlign=top;spacingLeft=4;spacingRight=4;overflow=hidden;rotatable=0;points=[[0,0.5],[1,0.5]];portConstraint=eastwest;fontColor=#333333;" parent="_PQUibNGBd2o8KV1kYcL-55" vertex="1"><mxGeometry y="78" width="220" height="26" as="geometry"/></mxCell><mxCell id="_PQUibNGBd2o8KV1kYcL-59" value="Clases" style="swimlane;fontStyle=0;childLayout=stackLayout;horizontal=1;startSize=26;fillColor=#d5e8d4;horizontalStack=0;resizeParent=1;resizeParentMax=0;resizeLast=0;collapsible=1;marginBottom=0;strokeColor=#82b366;" parent="1" vertex="1"><mxGeometry x="600" y="460" width="220" height="182" as="geometry"/></mxCell><mxCell id="_PQUibNGBd2o8KV1kYcL-60" value="PK IdClase: autoincrement int" style="text;strokeColor=#b85450;fillColor=#f8cecc;align=left;verticalAlign=top;spacingLeft=4;spacingRight=4;overflow=hidden;rotatable=0;points=[[0,0.5],[1,0.5]];portConstraint=eastwest;" parent="_PQUibNGBd2o8KV1kYcL-59" vertex="1"><mxGeometry y="26" width="220" height="26" as="geometry"/></mxCell><mxCell id="_PQUibNGBd2o8KV1kYcL-61" value="NombreClase: varchar(30)" style="text;strokeColor=#666666;fillColor=#f5f5f5;align=left;verticalAlign=top;spacingLeft=4;spacingRight=4;overflow=hidden;rotatable=0;points=[[0,0.5],[1,0.5]];portConstraint=eastwest;fontColor=#333333;" parent="_PQUibNGBd2o8KV1kYcL-59" vertex="1"><mxGeometry y="52" width="220" height="26" as="geometry"/></mxCell><mxCell id="_PQUibNGBd2o8KV1kYcL-63" value="CostoHora: decimal" style="text;strokeColor=#666666;fillColor=#f5f5f5;align=left;verticalAlign=top;spacingLeft=4;spacingRight=4;overflow=hidden;rotatable=0;points=[[0,0.5],[1,0.5]];portConstraint=eastwest;fontColor=#333333;" parent="_PQUibNGBd2o8KV1kYcL-59" vertex="1"><mxGeometry y="78" width="220" height="26" as="geometry"/></mxCell><mxCell id="_PQUibNGBd2o8KV1kYcL-64" value="FK Dias: varchar(30)" style="text;strokeColor=#6c8ebf;fillColor=#dae8fc;align=left;verticalAlign=top;spacingLeft=4;spacingRight=4;overflow=hidden;rotatable=0;points=[[0,0.5],[1,0.5]];portConstraint=eastwest;" parent="_PQUibNGBd2o8KV1kYcL-59" vertex="1"><mxGeometry y="104" width="220" height="26" as="geometry"/></mxCell><mxCell id="_PQUibNGBd2o8KV1kYcL-65" value="FK Horario: varchar(500)" style="text;strokeColor=#6c8ebf;fillColor=#dae8fc;align=left;verticalAlign=top;spacingLeft=4;spacingRight=4;overflow=hidden;rotatable=0;points=[[0,0.5],[1,0.5]];portConstraint=eastwest;" parent="_PQUibNGBd2o8KV1kYcL-59" vertex="1"><mxGeometry y="130" width="220" height="26" as="geometry"/></mxCell><mxCell id="_PQUibNGBd2o8KV1kYcL-67" value="Espacio: varchar(50)" style="text;strokeColor=#666666;fillColor=#f5f5f5;align=left;verticalAlign=top;spacingLeft=4;spacingRight=4;overflow=hidden;rotatable=0;points=[[0,0.5],[1,0.5]];portConstraint=eastwest;fontColor=#333333;" parent="_PQUibNGBd2o8KV1kYcL-59" vertex="1"><mxGeometry y="156" width="220" height="26" as="geometry"/></mxCell><mxCell id="_PQUibNGBd2o8KV1kYcL-68" value="Egresos" style="swimlane;fontStyle=0;childLayout=stackLayout;horizontal=1;startSize=26;fillColor=#d5e8d4;horizontalStack=0;resizeParent=1;resizeParentMax=0;resizeLast=0;collapsible=1;marginBottom=0;strokeColor=#82b366;" parent="1" vertex="1"><mxGeometry x="30" y="720" width="220" height="182" as="geometry"/></mxCell><mxCell id="_PQUibNGBd2o8KV1kYcL-69" value="PK IdEgreso: autoincrement int" style="text;strokeColor=#b85450;fillColor=#f8cecc;align=left;verticalAlign=top;spacingLeft=4;spacingRight=4;overflow=hidden;rotatable=0;points=[[0,0.5],[1,0.5]];portConstraint=eastwest;" parent="_PQUibNGBd2o8KV1kYcL-68" vertex="1"><mxGeometry y="26" width="220" height="26" as="geometry"/></mxCell><mxCell id="_PQUibNGBd2o8KV1kYcL-71" value="Nombre: varchar(100) not null" style="text;strokeColor=#666666;fillColor=#f5f5f5;align=left;verticalAlign=top;spacingLeft=4;spacingRight=4;overflow=hidden;rotatable=0;points=[[0,0.5],[1,0.5]];portConstraint=eastwest;fontColor=#333333;" parent="_PQUibNGBd2o8KV1kYcL-68" vertex="1"><mxGeometry y="52" width="220" height="26" as="geometry"/></mxCell><mxCell id="_PQUibNGBd2o8KV1kYcL-70" value="Concepto: varchar(300) not null" style="text;strokeColor=#666666;fillColor=#f5f5f5;align=left;verticalAlign=top;spacingLeft=4;spacingRight=4;overflow=hidden;rotatable=0;points=[[0,0.5],[1,0.5]];portConstraint=eastwest;fontColor=#333333;" parent="_PQUibNGBd2o8KV1kYcL-68" vertex="1"><mxGeometry y="78" width="220" height="26" as="geometry"/></mxCell><mxCell id="_PQUibNGBd2o8KV1kYcL-72" value="NumeroRecibo: int not null" style="text;strokeColor=#666666;fillColor=#f5f5f5;align=left;verticalAlign=top;spacingLeft=4;spacingRight=4;overflow=hidden;rotatable=0;points=[[0,0.5],[1,0.5]];portConstraint=eastwest;fontColor=#333333;" parent="_PQUibNGBd2o8KV1kYcL-68" vertex="1"><mxGeometry y="104" width="220" height="26" as="geometry"/></mxCell><mxCell id="_PQUibNGBd2o8KV1kYcL-73" value="Monto: decimal not null" style="text;strokeColor=#666666;fillColor=#f5f5f5;align=left;verticalAlign=top;spacingLeft=4;spacingRight=4;overflow=hidden;rotatable=0;points=[[0,0.5],[1,0.5]];portConstraint=eastwest;fontColor=#333333;" parent="_PQUibNGBd2o8KV1kYcL-68" vertex="1"><mxGeometry y="130" width="220" height="26" as="geometry"/></mxCell><mxCell id="_PQUibNGBd2o8KV1kYcL-74" value="FechaRegistro: datetime not null" style="text;strokeColor=#666666;fillColor=#f5f5f5;align=left;verticalAlign=top;spacingLeft=4;spacingRight=4;overflow=hidden;rotatable=0;points=[[0,0.5],[1,0.5]];portConstraint=eastwest;fontColor=#333333;" parent="_PQUibNGBd2o8KV1kYcL-68" vertex="1"><mxGeometry y="156" width="220" height="26" as="geometry"/></mxCell><mxCell id="_PQUibNGBd2o8KV1kYcL-75" value="Ingresos" style="swimlane;fontStyle=0;childLayout=stackLayout;horizontal=1;startSize=26;fillColor=#d5e8d4;horizontalStack=0;resizeParent=1;resizeParentMax=0;resizeLast=0;collapsible=1;marginBottom=0;strokeColor=#82b366;" parent="1" vertex="1"><mxGeometry x="320" y="720" width="220" height="182" as="geometry"/></mxCell><mxCell id="_PQUibNGBd2o8KV1kYcL-76" value="PK IdIngreso: autoincrement int" style="text;strokeColor=#b85450;fillColor=#f8cecc;align=left;verticalAlign=top;spacingLeft=4;spacingRight=4;overflow=hidden;rotatable=0;points=[[0,0.5],[1,0.5]];portConstraint=eastwest;" parent="_PQUibNGBd2o8KV1kYcL-75" vertex="1"><mxGeometry y="26" width="220" height="26" as="geometry"/></mxCell><mxCell id="_PQUibNGBd2o8KV1kYcL-77" value="Nombre: varchar(100) not null" style="text;strokeColor=#666666;fillColor=#f5f5f5;align=left;verticalAlign=top;spacingLeft=4;spacingRight=4;overflow=hidden;rotatable=0;points=[[0,0.5],[1,0.5]];portConstraint=eastwest;fontColor=#333333;" parent="_PQUibNGBd2o8KV1kYcL-75" vertex="1"><mxGeometry y="52" width="220" height="26" as="geometry"/></mxCell><mxCell id="_PQUibNGBd2o8KV1kYcL-78" value="Concepto: varchar(300) not null" style="text;strokeColor=#666666;fillColor=#f5f5f5;align=left;verticalAlign=top;spacingLeft=4;spacingRight=4;overflow=hidden;rotatable=0;points=[[0,0.5],[1,0.5]];portConstraint=eastwest;fontColor=#333333;" parent="_PQUibNGBd2o8KV1kYcL-75" vertex="1"><mxGeometry y="78" width="220" height="26" as="geometry"/></mxCell><mxCell id="_PQUibNGBd2o8KV1kYcL-79" value="NumeroRecibo: int not null" style="text;strokeColor=#666666;fillColor=#f5f5f5;align=left;verticalAlign=top;spacingLeft=4;spacingRight=4;overflow=hidden;rotatable=0;points=[[0,0.5],[1,0.5]];portConstraint=eastwest;fontColor=#333333;" parent="_PQUibNGBd2o8KV1kYcL-75" vertex="1"><mxGeometry y="104" width="220" height="26" as="geometry"/></mxCell><mxCell id="_PQUibNGBd2o8KV1kYcL-80" value="Monto: decimal not null" style="text;strokeColor=#666666;fillColor=#f5f5f5;align=left;verticalAlign=top;spacingLeft=4;spacingRight=4;overflow=hidden;rotatable=0;points=[[0,0.5],[1,0.5]];portConstraint=eastwest;fontColor=#333333;" parent="_PQUibNGBd2o8KV1kYcL-75" vertex="1"><mxGeometry y="130" width="220" height="26" as="geometry"/></mxCell><mxCell id="_PQUibNGBd2o8KV1kYcL-81" value="FechaRegistro: datetime not null" style="text;strokeColor=#666666;fillColor=#f5f5f5;align=left;verticalAlign=top;spacingLeft=4;spacingRight=4;overflow=hidden;rotatable=0;points=[[0,0.5],[1,0.5]];portConstraint=eastwest;fontColor=#333333;" parent="_PQUibNGBd2o8KV1kYcL-75" vertex="1"><mxGeometry y="156" width="220" height="26" as="geometry"/></mxCell><mxCell id="_PQUibNGBd2o8KV1kYcL-93" value="https://stackoverflow.com/questions/37825685/foreign-key-referring-to-multiple-rows-in-another-table" style="rounded=0;whiteSpace=wrap;html=1;fillColor=#FFCC99;" parent="1" vertex="1"><mxGeometry x="600" y="670" width="305" height="68" as="geometry"/></mxCell><mxCell id="_PQUibNGBd2o8KV1kYcL-95" value="TODO: Pensar en como manejar los horarios y los dias.&lt;br&gt;Tal vez tener una tabla de dias y otra de horarios???" style="rounded=0;whiteSpace=wrap;html=1;fillColor=#FFCC99;" parent="1" vertex="1"><mxGeometry x="600" y="760" width="310" height="60" as="geometry"/></mxCell><mxCell id="_PQUibNGBd2o8KV1kYcL-97" value="Horarios" style="swimlane;fontStyle=0;childLayout=stackLayout;horizontal=1;startSize=26;fillColor=#d5e8d4;horizontalStack=0;resizeParent=1;resizeParentMax=0;resizeLast=0;collapsible=1;marginBottom=0;strokeColor=#82b366;" parent="1" vertex="1"><mxGeometry x="880" y="80" width="220" height="104" as="geometry"/></mxCell><mxCell id="_PQUibNGBd2o8KV1kYcL-98" value="PK IdHorario: autoincrement not null" style="text;strokeColor=#b85450;fillColor=#f8cecc;align=left;verticalAlign=top;spacingLeft=4;spacingRight=4;overflow=hidden;rotatable=0;points=[[0,0.5],[1,0.5]];portConstraint=eastwest;" parent="_PQUibNGBd2o8KV1kYcL-97" vertex="1"><mxGeometry y="26" width="220" height="26" as="geometry"/></mxCell><mxCell id="_PQUibNGBd2o8KV1kYcL-99" value="HoraInicio: time" style="text;strokeColor=#666666;fillColor=#f5f5f5;align=left;verticalAlign=top;spacingLeft=4;spacingRight=4;overflow=hidden;rotatable=0;points=[[0,0.5],[1,0.5]];portConstraint=eastwest;fontColor=#333333;" parent="_PQUibNGBd2o8KV1kYcL-97" vertex="1"><mxGeometry y="52" width="220" height="26" as="geometry"/></mxCell><mxCell id="_PQUibNGBd2o8KV1kYcL-100" value="HoraFin: time" style="text;strokeColor=#666666;fillColor=#f5f5f5;align=left;verticalAlign=top;spacingLeft=4;spacingRight=4;overflow=hidden;rotatable=0;points=[[0,0.5],[1,0.5]];portConstraint=eastwest;fontColor=#333333;" parent="_PQUibNGBd2o8KV1kYcL-97" vertex="1"><mxGeometry y="78" width="220" height="26" as="geometry"/></mxCell><mxCell id="_PQUibNGBd2o8KV1kYcL-103" value="Dias" style="swimlane;fontStyle=0;childLayout=stackLayout;horizontal=1;startSize=26;fillColor=#f8cecc;horizontalStack=0;resizeParent=1;resizeParentMax=0;resizeLast=0;collapsible=1;marginBottom=0;strokeColor=#b85450;" parent="1" vertex="1"><mxGeometry x="880" y="220" width="220" height="78" as="geometry"/></mxCell><mxCell id="_PQUibNGBd2o8KV1kYcL-104" value="PK IdDia: autoincrement not null" style="text;strokeColor=#b85450;fillColor=#f8cecc;align=left;verticalAlign=top;spacingLeft=4;spacingRight=4;overflow=hidden;rotatable=0;points=[[0,0.5],[1,0.5]];portConstraint=eastwest;" parent="_PQUibNGBd2o8KV1kYcL-103" vertex="1"><mxGeometry y="26" width="220" height="26" as="geometry"/></mxCell><mxCell id="_PQUibNGBd2o8KV1kYcL-105" value="Dia: varchar(30)" style="text;strokeColor=#666666;fillColor=#f5f5f5;align=left;verticalAlign=top;spacingLeft=4;spacingRight=4;overflow=hidden;rotatable=0;points=[[0,0.5],[1,0.5]];portConstraint=eastwest;fontColor=#333333;" parent="_PQUibNGBd2o8KV1kYcL-103" vertex="1"><mxGeometry y="52" width="220" height="26" as="geometry"/></mxCell><mxCell id="_PQUibNGBd2o8KV1kYcL-107" value="TODO: Cada cliente, puede estar sucrito a diferentes clases en diferentes horarios, pensar como." style="rounded=0;whiteSpace=wrap;html=1;fillColor=default;" parent="1" vertex="1"><mxGeometry x="-230" y="380" width="250" height="90" as="geometry"/></mxCell><mxCell id="kc9UkNL6dZ1iaNoh5UJg-1" value="Preguntar si las clases y las diciplinas son lo mismo o conceptos similares." style="rounded=0;whiteSpace=wrap;html=1;fillColor=default;" parent="1" vertex="1"><mxGeometry x="-230" y="520" width="250" height="90" as="geometry"/></mxCell></root></mxGraphModel></diagram><diagram id="oXN6bezPFuXATdc1zWDB" name="Programa"><mxGraphModel dx="1131" dy="834" grid="1" gridSize="10" guides="1" tooltips="1" connect="1" arrows="1" fold="1" page="1" pageScale="1" pageWidth="850" pageHeight="1100" math="0" shadow="0"><root><mxCell id="NCdBMwZeUfhI6akPkJRa-0"/><mxCell id="NCdBMwZeUfhI6akPkJRa-1" parent="NCdBMwZeUfhI6akPkJRa-0"/><mxCell id="XIwZQpvGlZNfYe4D9ZGa-41" value="Clientes.&lt;br&gt;* Alta, baja, Edición&lt;br&gt;* Cobro&lt;br&gt;" style="text;html=1;strokeColor=none;fillColor=none;align=center;verticalAlign=middle;whiteSpace=wrap;rounded=0;" parent="NCdBMwZeUfhI6akPkJRa-1" vertex="1"><mxGeometry x="40" y="20" width="120" height="110" as="geometry"/></mxCell><mxCell id="XIwZQpvGlZNfYe4D9ZGa-42" value="Instructores&lt;br&gt;* Alta, baja, Edición&lt;br&gt;* Pago" style="text;html=1;strokeColor=none;fillColor=none;align=center;verticalAlign=middle;whiteSpace=wrap;rounded=0;" parent="NCdBMwZeUfhI6akPkJRa-1" vertex="1"><mxGeometry x="480" y="20" width="120" height="110" as="geometry"/></mxCell><mxCell id="FFGQptEWhdUkzCGt3Eey-9" value="Usuario: abstract" style="swimlane;fontStyle=3;align=center;verticalAlign=top;childLayout=stackLayout;horizontal=1;startSize=30;horizontalStack=0;resizeParent=1;resizeParentMax=0;resizeLast=0;collapsible=1;marginBottom=0;fillColor=#dae8fc;strokeColor=#6c8ebf;" parent="NCdBMwZeUfhI6akPkJRa-1" vertex="1"><mxGeometry x="40" y="140" width="250" height="454" as="geometry"/></mxCell><mxCell id="FFGQptEWhdUkzCGt3Eey-10" value="- Nombre: string" style="text;strokeColor=none;fillColor=none;align=left;verticalAlign=top;spacingLeft=4;spacingRight=4;overflow=hidden;rotatable=0;points=[[0,0.5],[1,0.5]];portConstraint=eastwest;" parent="FFGQptEWhdUkzCGt3Eey-9" vertex="1"><mxGeometry y="30" width="250" height="26" as="geometry"/></mxCell><mxCell id="FFGQptEWhdUkzCGt3Eey-17" value="- ApellidoPaterno: string" style="text;strokeColor=none;fillColor=none;align=left;verticalAlign=top;spacingLeft=4;spacingRight=4;overflow=hidden;rotatable=0;points=[[0,0.5],[1,0.5]];portConstraint=eastwest;" parent="FFGQptEWhdUkzCGt3Eey-9" vertex="1"><mxGeometry y="56" width="250" height="26" as="geometry"/></mxCell><mxCell id="FFGQptEWhdUkzCGt3Eey-18" value="- ApellidoMaterno: string" style="text;strokeColor=none;fillColor=none;align=left;verticalAlign=top;spacingLeft=4;spacingRight=4;overflow=hidden;rotatable=0;points=[[0,0.5],[1,0.5]];portConstraint=eastwest;" parent="FFGQptEWhdUkzCGt3Eey-9" vertex="1"><mxGeometry y="82" width="250" height="26" as="geometry"/></mxCell><mxCell id="FFGQptEWhdUkzCGt3Eey-29" value="- Username: string" style="text;strokeColor=none;fillColor=none;align=left;verticalAlign=top;spacingLeft=4;spacingRight=4;overflow=hidden;rotatable=0;points=[[0,0.5],[1,0.5]];portConstraint=eastwest;" parent="FFGQptEWhdUkzCGt3Eey-9" vertex="1"><mxGeometry y="108" width="250" height="26" as="geometry"/></mxCell><mxCell id="FFGQptEWhdUkzCGt3Eey-19" value="- FechaNacimiento: DateTime" style="text;strokeColor=none;fillColor=none;align=left;verticalAlign=top;spacingLeft=4;spacingRight=4;overflow=hidden;rotatable=0;points=[[0,0.5],[1,0.5]];portConstraint=eastwest;" parent="FFGQptEWhdUkzCGt3Eey-9" vertex="1"><mxGeometry y="134" width="250" height="26" as="geometry"/></mxCell><mxCell id="FFGQptEWhdUkzCGt3Eey-20" value="- Telefono: string" style="text;strokeColor=none;fillColor=none;align=left;verticalAlign=top;spacingLeft=4;spacingRight=4;overflow=hidden;rotatable=0;points=[[0,0.5],[1,0.5]];portConstraint=eastwest;" parent="FFGQptEWhdUkzCGt3Eey-9" vertex="1"><mxGeometry y="160" width="250" height="26" as="geometry"/></mxCell><mxCell id="FFGQptEWhdUkzCGt3Eey-21" value="- CondicionEspecial: bool" style="text;strokeColor=none;fillColor=none;align=left;verticalAlign=top;spacingLeft=4;spacingRight=4;overflow=hidden;rotatable=0;points=[[0,0.5],[1,0.5]];portConstraint=eastwest;" parent="FFGQptEWhdUkzCGt3Eey-9" vertex="1"><mxGeometry y="186" width="250" height="26" as="geometry"/></mxCell><mxCell id="FFGQptEWhdUkzCGt3Eey-22" value="- NombreContacto: string" style="text;strokeColor=none;fillColor=none;align=left;verticalAlign=top;spacingLeft=4;spacingRight=4;overflow=hidden;rotatable=0;points=[[0,0.5],[1,0.5]];portConstraint=eastwest;" parent="FFGQptEWhdUkzCGt3Eey-9" vertex="1"><mxGeometry y="212" width="250" height="26" as="geometry"/></mxCell><mxCell id="FFGQptEWhdUkzCGt3Eey-23" value="- TelefonoContracto: string" style="text;strokeColor=none;fillColor=none;align=left;verticalAlign=top;spacingLeft=4;spacingRight=4;overflow=hidden;rotatable=0;points=[[0,0.5],[1,0.5]];portConstraint=eastwest;" parent="FFGQptEWhdUkzCGt3Eey-9" vertex="1"><mxGeometry y="238" width="250" height="26" as="geometry"/></mxCell><mxCell id="FFGQptEWhdUkzCGt3Eey-24" value="- Foto: image" style="text;strokeColor=none;fillColor=none;align=left;verticalAlign=top;spacingLeft=4;spacingRight=4;overflow=hidden;rotatable=0;points=[[0,0.5],[1,0.5]];portConstraint=eastwest;" parent="FFGQptEWhdUkzCGt3Eey-9" vertex="1"><mxGeometry y="264" width="250" height="26" as="geometry"/></mxCell><mxCell id="FFGQptEWhdUkzCGt3Eey-25" value="- FechaUltimoAcceso: DateTime" style="text;strokeColor=none;fillColor=none;align=left;verticalAlign=top;spacingLeft=4;spacingRight=4;overflow=hidden;rotatable=0;points=[[0,0.5],[1,0.5]];portConstraint=eastwest;" parent="FFGQptEWhdUkzCGt3Eey-9" vertex="1"><mxGeometry y="290" width="250" height="26" as="geometry"/></mxCell><mxCell id="FFGQptEWhdUkzCGt3Eey-26" value="- FechaUltimoPago: DateTime" style="text;strokeColor=none;fillColor=none;align=left;verticalAlign=top;spacingLeft=4;spacingRight=4;overflow=hidden;rotatable=0;points=[[0,0.5],[1,0.5]];portConstraint=eastwest;" parent="FFGQptEWhdUkzCGt3Eey-9" vertex="1"><mxGeometry y="316" width="250" height="26" as="geometry"/></mxCell><mxCell id="FFGQptEWhdUkzCGt3Eey-27" value="- DiasHorario: List&lt;Dictionary&lt;string string&gt;&gt;" style="text;strokeColor=none;fillColor=none;align=left;verticalAlign=top;spacingLeft=4;spacingRight=4;overflow=hidden;rotatable=0;points=[[0,0.5],[1,0.5]];portConstraint=eastwest;" parent="FFGQptEWhdUkzCGt3Eey-9" vertex="1"><mxGeometry y="342" width="250" height="26" as="geometry"/></mxCell><mxCell id="mnji9_TtdXSJiiiDIRz8-3" value="- MontoUltimoPago: decimal" style="text;strokeColor=none;fillColor=none;align=left;verticalAlign=top;spacingLeft=4;spacingRight=4;overflow=hidden;rotatable=0;points=[[0,0.5],[1,0.5]];portConstraint=eastwest;" parent="FFGQptEWhdUkzCGt3Eey-9" vertex="1"><mxGeometry y="368" width="250" height="26" as="geometry"/></mxCell><mxCell id="FFGQptEWhdUkzCGt3Eey-28" value="- ClasesDiciplinas: TODO" style="text;strokeColor=none;fillColor=none;align=left;verticalAlign=top;spacingLeft=4;spacingRight=4;overflow=hidden;rotatable=0;points=[[0,0.5],[1,0.5]];portConstraint=eastwest;" parent="FFGQptEWhdUkzCGt3Eey-9" vertex="1"><mxGeometry y="394" width="250" height="26" as="geometry"/></mxCell><mxCell id="FFGQptEWhdUkzCGt3Eey-11" value="" style="line;strokeWidth=1;fillColor=none;align=left;verticalAlign=middle;spacingTop=-1;spacingLeft=3;spacingRight=3;rotatable=0;labelPosition=right;points=[];portConstraint=eastwest;" parent="FFGQptEWhdUkzCGt3Eey-9" vertex="1"><mxGeometry y="420" width="250" height="8" as="geometry"/></mxCell><mxCell id="FFGQptEWhdUkzCGt3Eey-12" value="+ method(type): type" style="text;strokeColor=none;fillColor=none;align=left;verticalAlign=top;spacingLeft=4;spacingRight=4;overflow=hidden;rotatable=0;points=[[0,0.5],[1,0.5]];portConstraint=eastwest;" parent="FFGQptEWhdUkzCGt3Eey-9" vertex="1"><mxGeometry y="428" width="250" height="26" as="geometry"/></mxCell><mxCell id="yXQYaf18RMCinisfdZaS-4" value="Cliente" style="swimlane;fontStyle=1;align=center;verticalAlign=top;childLayout=stackLayout;horizontal=1;startSize=26;horizontalStack=0;resizeParent=1;resizeParentMax=0;resizeLast=0;collapsible=1;marginBottom=0;fillColor=#dae8fc;strokeColor=#6c8ebf;" parent="NCdBMwZeUfhI6akPkJRa-1" vertex="1"><mxGeometry x="360" y="140" width="250" height="138" as="geometry"><mxRectangle x="360" y="140" width="70" height="26" as="alternateBounds"/></mxGeometry></mxCell><mxCell id="mnji9_TtdXSJiiiDIRz8-1" value="- IdTipoCliente: int" style="text;strokeColor=none;fillColor=none;align=left;verticalAlign=top;spacingLeft=4;spacingRight=4;overflow=hidden;rotatable=0;points=[[0,0.5],[1,0.5]];portConstraint=eastwest;" parent="yXQYaf18RMCinisfdZaS-4" vertex="1"><mxGeometry y="26" width="250" height="26" as="geometry"/></mxCell><mxCell id="mnji9_TtdXSJiiiDIRz8-2" value="- IdClase: int" style="text;strokeColor=none;fillColor=none;align=left;verticalAlign=top;spacingLeft=4;spacingRight=4;overflow=hidden;rotatable=0;points=[[0,0.5],[1,0.5]];portConstraint=eastwest;" parent="yXQYaf18RMCinisfdZaS-4" vertex="1"><mxGeometry y="52" width="250" height="26" as="geometry"/></mxCell><mxCell id="yXQYaf18RMCinisfdZaS-5" value="- DeudaCliente: decimal" style="text;strokeColor=none;fillColor=none;align=left;verticalAlign=top;spacingLeft=4;spacingRight=4;overflow=hidden;rotatable=0;points=[[0,0.5],[1,0.5]];portConstraint=eastwest;" parent="yXQYaf18RMCinisfdZaS-4" vertex="1"><mxGeometry y="78" width="250" height="26" as="geometry"/></mxCell><mxCell id="yXQYaf18RMCinisfdZaS-6" value="" style="line;strokeWidth=1;fillColor=none;align=left;verticalAlign=middle;spacingTop=-1;spacingLeft=3;spacingRight=3;rotatable=0;labelPosition=right;points=[];portConstraint=eastwest;" parent="yXQYaf18RMCinisfdZaS-4" vertex="1"><mxGeometry y="104" width="250" height="8" as="geometry"/></mxCell><mxCell id="yXQYaf18RMCinisfdZaS-7" value="+ method(type): type" style="text;strokeColor=none;fillColor=none;align=left;verticalAlign=top;spacingLeft=4;spacingRight=4;overflow=hidden;rotatable=0;points=[[0,0.5],[1,0.5]];portConstraint=eastwest;" parent="yXQYaf18RMCinisfdZaS-4" vertex="1"><mxGeometry y="112" width="250" height="26" as="geometry"/></mxCell><mxCell id="j5jM3fZAhNzTMVTaHoUS-0" value="Instructor" style="swimlane;fontStyle=1;align=center;verticalAlign=top;childLayout=stackLayout;horizontal=1;startSize=26;horizontalStack=0;resizeParent=1;resizeParentMax=0;resizeLast=0;collapsible=1;marginBottom=0;fillColor=#dae8fc;strokeColor=#6c8ebf;" parent="NCdBMwZeUfhI6akPkJRa-1" vertex="1"><mxGeometry x="360" y="298" width="250" height="138" as="geometry"><mxRectangle x="360" y="298" width="90" height="26" as="alternateBounds"/></mxGeometry></mxCell><mxCell id="j5jM3fZAhNzTMVTaHoUS-1" value="- IdTipoInstructor: int" style="text;strokeColor=none;fillColor=none;align=left;verticalAlign=top;spacingLeft=4;spacingRight=4;overflow=hidden;rotatable=0;points=[[0,0.5],[1,0.5]];portConstraint=eastwest;" parent="j5jM3fZAhNzTMVTaHoUS-0" vertex="1"><mxGeometry y="26" width="250" height="26" as="geometry"/></mxCell><mxCell id="j5jM3fZAhNzTMVTaHoUS-2" value="- IdDiciplina: int" style="text;strokeColor=none;fillColor=none;align=left;verticalAlign=top;spacingLeft=4;spacingRight=4;overflow=hidden;rotatable=0;points=[[0,0.5],[1,0.5]];portConstraint=eastwest;" parent="j5jM3fZAhNzTMVTaHoUS-0" vertex="1"><mxGeometry y="52" width="250" height="26" as="geometry"/></mxCell><mxCell id="j5jM3fZAhNzTMVTaHoUS-4" value="- PagoHora: decimal" style="text;strokeColor=none;fillColor=none;align=left;verticalAlign=top;spacingLeft=4;spacingRight=4;overflow=hidden;rotatable=0;points=[[0,0.5],[1,0.5]];portConstraint=eastwest;" parent="j5jM3fZAhNzTMVTaHoUS-0" vertex="1"><mxGeometry y="78" width="250" height="26" as="geometry"/></mxCell><mxCell id="j5jM3fZAhNzTMVTaHoUS-5" value="" style="line;strokeWidth=1;fillColor=none;align=left;verticalAlign=middle;spacingTop=-1;spacingLeft=3;spacingRight=3;rotatable=0;labelPosition=right;points=[];portConstraint=eastwest;" parent="j5jM3fZAhNzTMVTaHoUS-0" vertex="1"><mxGeometry y="104" width="250" height="8" as="geometry"/></mxCell><mxCell id="j5jM3fZAhNzTMVTaHoUS-6" value="+ method(type): type" style="text;strokeColor=none;fillColor=none;align=left;verticalAlign=top;spacingLeft=4;spacingRight=4;overflow=hidden;rotatable=0;points=[[0,0.5],[1,0.5]];portConstraint=eastwest;" parent="j5jM3fZAhNzTMVTaHoUS-0" vertex="1"><mxGeometry y="112" width="250" height="26" as="geometry"/></mxCell><mxCell id="Frxqq9I5dXXsNKOs_4KR-0" value="Movimientos" style="swimlane;fontStyle=1;align=center;verticalAlign=top;childLayout=stackLayout;horizontal=1;startSize=30;horizontalStack=0;resizeParent=1;resizeParentMax=0;resizeLast=0;collapsible=1;marginBottom=0;fillColor=#dae8fc;strokeColor=#6c8ebf;" parent="NCdBMwZeUfhI6akPkJRa-1" vertex="1"><mxGeometry x="40" y="660" width="250" height="220" as="geometry"><mxRectangle x="40" y="660" width="140" height="40" as="alternateBounds"/></mxGeometry></mxCell><mxCell id="hUm0ocrHdu9UbUG194O9-0" value="- IdMovimiento: int" style="text;strokeColor=none;fillColor=none;align=left;verticalAlign=top;spacingLeft=4;spacingRight=4;overflow=hidden;rotatable=0;points=[[0,0.5],[1,0.5]];portConstraint=eastwest;" parent="Frxqq9I5dXXsNKOs_4KR-0" vertex="1"><mxGeometry y="30" width="250" height="26" as="geometry"/></mxCell><mxCell id="Frxqq9I5dXXsNKOs_4KR-1" value="- Nombre: string" style="text;strokeColor=none;fillColor=none;align=left;verticalAlign=top;spacingLeft=4;spacingRight=4;overflow=hidden;rotatable=0;points=[[0,0.5],[1,0.5]];portConstraint=eastwest;" parent="Frxqq9I5dXXsNKOs_4KR-0" vertex="1"><mxGeometry y="56" width="250" height="26" as="geometry"/></mxCell><mxCell id="eUCrxvFBTYvKeElTK4Tf-0" value="- Concepto: string" style="text;strokeColor=none;fillColor=none;align=left;verticalAlign=top;spacingLeft=4;spacingRight=4;overflow=hidden;rotatable=0;points=[[0,0.5],[1,0.5]];portConstraint=eastwest;" parent="Frxqq9I5dXXsNKOs_4KR-0" vertex="1"><mxGeometry y="82" width="250" height="26" as="geometry"/></mxCell><mxCell id="PD3841qvP7ykiT67UXl3-0" value="- NumeroRecibo: int" style="text;strokeColor=none;fillColor=none;align=left;verticalAlign=top;spacingLeft=4;spacingRight=4;overflow=hidden;rotatable=0;points=[[0,0.5],[1,0.5]];portConstraint=eastwest;" parent="Frxqq9I5dXXsNKOs_4KR-0" vertex="1"><mxGeometry y="108" width="250" height="26" as="geometry"/></mxCell><mxCell id="ob-OHFlDrTSiD9hXbz5V-0" value="- Monto: decimal" style="text;strokeColor=none;fillColor=none;align=left;verticalAlign=top;spacingLeft=4;spacingRight=4;overflow=hidden;rotatable=0;points=[[0,0.5],[1,0.5]];portConstraint=eastwest;" parent="Frxqq9I5dXXsNKOs_4KR-0" vertex="1"><mxGeometry y="134" width="250" height="26" as="geometry"/></mxCell><mxCell id="DlymKoq5vRMN1Hc3rZrt-0" value="- FechaRegistro: DateTime" style="text;strokeColor=none;fillColor=none;align=left;verticalAlign=top;spacingLeft=4;spacingRight=4;overflow=hidden;rotatable=0;points=[[0,0.5],[1,0.5]];portConstraint=eastwest;" parent="Frxqq9I5dXXsNKOs_4KR-0" vertex="1"><mxGeometry y="160" width="250" height="26" as="geometry"/></mxCell><mxCell id="Frxqq9I5dXXsNKOs_4KR-2" value="" style="line;strokeWidth=1;fillColor=none;align=left;verticalAlign=middle;spacingTop=-1;spacingLeft=3;spacingRight=3;rotatable=0;labelPosition=right;points=[];portConstraint=eastwest;" parent="Frxqq9I5dXXsNKOs_4KR-0" vertex="1"><mxGeometry y="186" width="250" height="8" as="geometry"/></mxCell><mxCell id="Frxqq9I5dXXsNKOs_4KR-3" value="+ method(type): type" style="text;strokeColor=none;fillColor=none;align=left;verticalAlign=top;spacingLeft=4;spacingRight=4;overflow=hidden;rotatable=0;points=[[0,0.5],[1,0.5]];portConstraint=eastwest;" parent="Frxqq9I5dXXsNKOs_4KR-0" vertex="1"><mxGeometry y="194" width="250" height="26" as="geometry"/></mxCell><mxCell id="oquECUO4KUVLFIYAawkY-0" value="" style="endArrow=block;dashed=1;endFill=0;endSize=12;html=1;rounded=0;edgeStyle=orthogonalEdgeStyle;" parent="NCdBMwZeUfhI6akPkJRa-1" source="yXQYaf18RMCinisfdZaS-4" target="FFGQptEWhdUkzCGt3Eey-9" edge="1"><mxGeometry width="160" relative="1" as="geometry"><mxPoint x="350" y="310" as="sourcePoint"/><mxPoint x="510" y="310" as="targetPoint"/></mxGeometry></mxCell><mxCell id="oquECUO4KUVLFIYAawkY-1" value="" style="endArrow=block;dashed=1;endFill=0;endSize=12;html=1;rounded=0;edgeStyle=orthogonalEdgeStyle;" parent="NCdBMwZeUfhI6akPkJRa-1" source="j5jM3fZAhNzTMVTaHoUS-0" target="FFGQptEWhdUkzCGt3Eey-9" edge="1"><mxGeometry width="160" relative="1" as="geometry"><mxPoint x="350" y="360" as="sourcePoint"/><mxPoint x="510" y="360" as="targetPoint"/></mxGeometry></mxCell><mxCell id="JMY_iCeqe-vd2ogFBO90-0" value="Tipos" style="swimlane;fontStyle=1;align=center;verticalAlign=top;childLayout=stackLayout;horizontal=1;startSize=26;horizontalStack=0;resizeParent=1;resizeParentMax=0;resizeLast=0;collapsible=1;marginBottom=0;fillColor=#dae8fc;strokeColor=#6c8ebf;" parent="NCdBMwZeUfhI6akPkJRa-1" vertex="1"><mxGeometry x="360" y="660" width="200" height="138" as="geometry"/></mxCell><mxCell id="JMY_iCeqe-vd2ogFBO90-1" value="- IdTipo: int" style="text;strokeColor=none;fillColor=none;align=left;verticalAlign=top;spacingLeft=4;spacingRight=4;overflow=hidden;rotatable=0;points=[[0,0.5],[1,0.5]];portConstraint=eastwest;" parent="JMY_iCeqe-vd2ogFBO90-0" vertex="1"><mxGeometry y="26" width="200" height="26" as="geometry"/></mxCell><mxCell id="8r0AmrULSNzy8HUDFLRw-0" value="- NombreTipo: string" style="text;strokeColor=none;fillColor=none;align=left;verticalAlign=top;spacingLeft=4;spacingRight=4;overflow=hidden;rotatable=0;points=[[0,0.5],[1,0.5]];portConstraint=eastwest;" parent="JMY_iCeqe-vd2ogFBO90-0" vertex="1"><mxGeometry y="52" width="200" height="26" as="geometry"/></mxCell><mxCell id="m7bV1nhS4pGWgKfIjaHd-0" value="- DescripcionTipo: string" style="text;strokeColor=none;fillColor=none;align=left;verticalAlign=top;spacingLeft=4;spacingRight=4;overflow=hidden;rotatable=0;points=[[0,0.5],[1,0.5]];portConstraint=eastwest;" parent="JMY_iCeqe-vd2ogFBO90-0" vertex="1"><mxGeometry y="78" width="200" height="26" as="geometry"/></mxCell><mxCell id="JMY_iCeqe-vd2ogFBO90-2" value="" style="line;strokeWidth=1;fillColor=none;align=left;verticalAlign=middle;spacingTop=-1;spacingLeft=3;spacingRight=3;rotatable=0;labelPosition=right;points=[];portConstraint=eastwest;" parent="JMY_iCeqe-vd2ogFBO90-0" vertex="1"><mxGeometry y="104" width="200" height="8" as="geometry"/></mxCell><mxCell id="JMY_iCeqe-vd2ogFBO90-3" value="+ method(type): type" style="text;strokeColor=none;fillColor=none;align=left;verticalAlign=top;spacingLeft=4;spacingRight=4;overflow=hidden;rotatable=0;points=[[0,0.5],[1,0.5]];portConstraint=eastwest;" parent="JMY_iCeqe-vd2ogFBO90-0" vertex="1"><mxGeometry y="112" width="200" height="26" as="geometry"/></mxCell><mxCell id="ZhM_h3UZ6g2DKjQ16wx4-0" value="Horario" style="swimlane;fontStyle=1;align=center;verticalAlign=top;childLayout=stackLayout;horizontal=1;startSize=26;horizontalStack=0;resizeParent=1;resizeParentMax=0;resizeLast=0;collapsible=1;marginBottom=0;fillColor=#dae8fc;strokeColor=#6c8ebf;" parent="NCdBMwZeUfhI6akPkJRa-1" vertex="1"><mxGeometry x="640" y="660" width="180" height="138" as="geometry"/></mxCell><mxCell id="ZhM_h3UZ6g2DKjQ16wx4-1" value="- IdHorario: int" style="text;strokeColor=none;fillColor=none;align=left;verticalAlign=top;spacingLeft=4;spacingRight=4;overflow=hidden;rotatable=0;points=[[0,0.5],[1,0.5]];portConstraint=eastwest;" parent="ZhM_h3UZ6g2DKjQ16wx4-0" vertex="1"><mxGeometry y="26" width="180" height="26" as="geometry"/></mxCell><mxCell id="nw9pnjWhJMnOnhfOvTP8-0" value="- HoraInicio: Time" style="text;strokeColor=none;fillColor=none;align=left;verticalAlign=top;spacingLeft=4;spacingRight=4;overflow=hidden;rotatable=0;points=[[0,0.5],[1,0.5]];portConstraint=eastwest;" parent="ZhM_h3UZ6g2DKjQ16wx4-0" vertex="1"><mxGeometry y="52" width="180" height="26" as="geometry"/></mxCell><mxCell id="ctmqJZ-5a6bzlRn5zhjg-0" value="- HoraFin: Time" style="text;strokeColor=none;fillColor=none;align=left;verticalAlign=top;spacingLeft=4;spacingRight=4;overflow=hidden;rotatable=0;points=[[0,0.5],[1,0.5]];portConstraint=eastwest;" parent="ZhM_h3UZ6g2DKjQ16wx4-0" vertex="1"><mxGeometry y="78" width="180" height="26" as="geometry"/></mxCell><mxCell id="ZhM_h3UZ6g2DKjQ16wx4-2" value="" style="line;strokeWidth=1;fillColor=none;align=left;verticalAlign=middle;spacingTop=-1;spacingLeft=3;spacingRight=3;rotatable=0;labelPosition=right;points=[];portConstraint=eastwest;" parent="ZhM_h3UZ6g2DKjQ16wx4-0" vertex="1"><mxGeometry y="104" width="180" height="8" as="geometry"/></mxCell><mxCell id="ZhM_h3UZ6g2DKjQ16wx4-3" value="+ method(type): type" style="text;strokeColor=none;fillColor=none;align=left;verticalAlign=top;spacingLeft=4;spacingRight=4;overflow=hidden;rotatable=0;points=[[0,0.5],[1,0.5]];portConstraint=eastwest;" parent="ZhM_h3UZ6g2DKjQ16wx4-0" vertex="1"><mxGeometry y="112" width="180" height="26" as="geometry"/></mxCell><mxCell id="VamKtwTMu8MWzDZoU1qe-1" value="&lt;&lt;Enum&gt;&gt;&#10;Dias" style="swimlane;fontStyle=0;childLayout=stackLayout;horizontal=1;startSize=30;fillColor=#dae8fc;horizontalStack=0;resizeParent=1;resizeParentMax=0;resizeLast=0;collapsible=1;marginBottom=0;strokeColor=#6c8ebf;" parent="NCdBMwZeUfhI6akPkJRa-1" vertex="1"><mxGeometry x="640" y="840" width="180" height="212" as="geometry"/></mxCell><mxCell id="VamKtwTMu8MWzDZoU1qe-2" value="Lunes" style="text;strokeColor=none;fillColor=none;align=left;verticalAlign=top;spacingLeft=4;spacingRight=4;overflow=hidden;rotatable=0;points=[[0,0.5],[1,0.5]];portConstraint=eastwest;" parent="VamKtwTMu8MWzDZoU1qe-1" vertex="1"><mxGeometry y="30" width="180" height="26" as="geometry"/></mxCell><mxCell id="VamKtwTMu8MWzDZoU1qe-3" value="Martes" style="text;strokeColor=none;fillColor=none;align=left;verticalAlign=top;spacingLeft=4;spacingRight=4;overflow=hidden;rotatable=0;points=[[0,0.5],[1,0.5]];portConstraint=eastwest;" parent="VamKtwTMu8MWzDZoU1qe-1" vertex="1"><mxGeometry y="56" width="180" height="26" as="geometry"/></mxCell><mxCell id="VamKtwTMu8MWzDZoU1qe-4" value="Miercoles" style="text;strokeColor=none;fillColor=none;align=left;verticalAlign=top;spacingLeft=4;spacingRight=4;overflow=hidden;rotatable=0;points=[[0,0.5],[1,0.5]];portConstraint=eastwest;" parent="VamKtwTMu8MWzDZoU1qe-1" vertex="1"><mxGeometry y="82" width="180" height="26" as="geometry"/></mxCell><mxCell id="VamKtwTMu8MWzDZoU1qe-6" value="Jueves" style="text;strokeColor=none;fillColor=none;align=left;verticalAlign=top;spacingLeft=4;spacingRight=4;overflow=hidden;rotatable=0;points=[[0,0.5],[1,0.5]];portConstraint=eastwest;" parent="VamKtwTMu8MWzDZoU1qe-1" vertex="1"><mxGeometry y="108" width="180" height="26" as="geometry"/></mxCell><mxCell id="VamKtwTMu8MWzDZoU1qe-7" value="Viernes" style="text;strokeColor=none;fillColor=none;align=left;verticalAlign=top;spacingLeft=4;spacingRight=4;overflow=hidden;rotatable=0;points=[[0,0.5],[1,0.5]];portConstraint=eastwest;" parent="VamKtwTMu8MWzDZoU1qe-1" vertex="1"><mxGeometry y="134" width="180" height="26" as="geometry"/></mxCell><mxCell id="VamKtwTMu8MWzDZoU1qe-8" value="Sabado" style="text;strokeColor=none;fillColor=none;align=left;verticalAlign=top;spacingLeft=4;spacingRight=4;overflow=hidden;rotatable=0;points=[[0,0.5],[1,0.5]];portConstraint=eastwest;" parent="VamKtwTMu8MWzDZoU1qe-1" vertex="1"><mxGeometry y="160" width="180" height="26" as="geometry"/></mxCell><mxCell id="VamKtwTMu8MWzDZoU1qe-5" value="Domingo" style="text;strokeColor=none;fillColor=none;align=left;verticalAlign=top;spacingLeft=4;spacingRight=4;overflow=hidden;rotatable=0;points=[[0,0.5],[1,0.5]];portConstraint=eastwest;" parent="VamKtwTMu8MWzDZoU1qe-1" vertex="1"><mxGeometry y="186" width="180" height="26" as="geometry"/></mxCell></root></mxGraphModel></diagram></mxfile>